<svg width="8411" height="5657" viewBox="0 0 8411 5657" fill="none" xmlns="http://www.w3.org/2000/svg">
<path d="M8230.65 1.71535C8206.97 1.60475 8182.12 1.6048 8156.23 1.4942C7879.92 0.941232 7502.73 -0.275371 7479.86 0.0564108C7334.86 2.4895 7222.13 67.7403 7135.4 174.686C7036.85 296.118 7024.18 537.325 7221.55 676.564C7329.75 737.058 7443.29 756.855 7564.61 717.042C7611.29 701.669 7649.6 678.996 7679.78 650.242C7681.99 648.14 7684.19 645.929 7686.4 643.607C7701.38 628.454 7714.15 611.756 7724.94 593.396C7743.64 561.434 7756.17 525.27 7762.68 485.456C7778.45 388.465 7745.03 302.974 7657.26 240.71C7647.16 233.521 7636.71 226.776 7625.91 220.804C7553.7 180.658 7466.51 172.805 7390.58 214.278C7321.16 252.212 7281.12 323.213 7281.8 399.413C7282.03 428.167 7287.72 456.923 7301.77 482.249C7323.36 520.846 7364.7 548.827 7409.97 555.573C7480.68 566.079 7556.02 524.718 7576.46 459.025C7578.43 452.499 7581.91 440.112 7581.33 436.021C7581.22 435.357 7580.98 434.803 7580.29 434.582L7492.52 405.054C7492.05 404.833 7491.59 405.054 7491.24 405.497C7489.5 407.597 7484.62 418.546 7473.59 433.366C7459.31 452.61 7430.99 465.217 7408.81 448.849C7399.41 441.882 7393.02 431.596 7389.08 420.759C7374.8 381.94 7392.44 335.932 7427.04 311.269C7461.52 286.496 7509.82 282.515 7550.33 296.561C7661.79 335.268 7689.3 469.199 7623.13 556.458C7595.15 593.396 7552.42 619.275 7506.33 631.108C7498.79 632.99 7491.12 634.649 7483.46 635.865C7338.57 658.978 7208.43 561.877 7186.83 425.735C7157.36 239.825 7327.08 104.015 7480.91 104.347C7480.91 104.347 7869.95 103.684 8049.42 103.794C8169.12 104.015 8288.82 104.126 8408.51 104.126V1.71535H8230.65ZM8408.63 1.71535H8408.51H8400.85" fill="#F2DEBA"/>
<path d="M8408.63 1.49414H8301.12C8301.12 115.517 8301.24 229.541 8301.47 343.563C8301.59 514.542 8300.89 885.145 8300.89 885.145C8301.24 1031.68 8158.67 1193.37 7963.51 1165.28C7820.61 1144.71 7718.66 1020.73 7742.94 882.712C7744.22 875.413 7745.96 868.113 7747.93 860.925C7760.34 817.019 7787.52 776.319 7826.3 749.667C7917.9 686.627 8058.48 712.838 8099.11 819.01C8113.86 857.607 8109.68 903.614 8083.67 936.461C8057.78 969.418 8009.49 986.228 7968.75 972.625C7957.36 968.866 7946.56 962.782 7939.25 953.824C7922.08 932.7 7935.3 905.716 7955.5 892.113C7971.06 881.605 7982.55 876.96 7984.76 875.302C7985.22 874.97 7985.47 874.528 7985.22 874.086L7954.24 790.476C7953.99 789.813 7953.41 789.591 7952.73 789.481C7948.42 788.927 7935.43 792.245 7928.58 794.126C7859.62 813.59 7816.2 885.366 7827.23 952.718C7834.31 995.85 7863.67 1035.22 7904.2 1055.79C7930.77 1069.17 7960.96 1074.59 7991.14 1074.82C8071.13 1075.48 8145.67 1037.32 8185.49 971.188C8229.03 898.858 8220.78 815.801 8178.64 747.013C8172.37 736.726 8165.29 726.773 8157.74 717.151C8092.38 633.542 8002.64 601.691 7900.82 616.732C7859.04 622.925 7821.06 634.869 7787.52 652.676C7768.25 662.961 7750.72 675.126 7734.81 689.392C7732.36 691.494 7730.05 693.594 7727.85 695.696C7697.66 724.45 7673.86 760.948 7657.72 805.407C7615.93 920.978 7636.71 1029.14 7700.22 1132.21C7846.37 1320.22 8099.58 1308.17 8227.05 1214.27C8339.32 1131.66 8407.82 1024.27 8410.37 886.141C8410.72 864.353 8409.44 505.031 8408.86 241.817C8408.74 217.154 8408.74 193.486 8408.63 170.925V1.49414ZM8408.63 8.79333V1.71529V1.49414" fill="#F2DEBA"/>
<path d="M1.91699 1.71535V104.126C121.612 104.126 241.305 104.015 361 103.794C540.484 103.684 929.52 104.347 929.52 104.347C1083.35 104.015 1253.08 239.825 1223.59 425.735C1202 561.877 1071.85 658.978 926.966 635.865C919.303 634.649 911.641 632.99 904.096 631.108C858.005 619.275 815.281 593.396 787.303 556.458C721.129 469.199 748.643 335.268 860.095 296.561C900.613 282.515 948.908 286.496 983.389 311.269C1017.99 335.932 1035.63 381.94 1021.35 420.759C1017.4 431.596 1011.02 441.882 1001.62 448.849C979.44 465.217 951.114 452.61 936.834 433.366C925.805 418.546 920.929 407.597 919.187 405.497C918.839 405.054 918.375 404.833 917.91 405.054L830.142 434.582C829.445 434.803 829.213 435.357 829.097 436.021C828.518 440.112 831.999 452.499 833.973 459.025C854.406 524.718 929.752 566.079 1000.45 555.573C1045.73 548.827 1087.06 520.846 1108.65 482.249C1122.7 456.923 1128.39 428.167 1128.62 399.413C1129.32 323.213 1089.27 252.212 1019.84 214.278C943.916 172.805 856.728 180.658 784.517 220.804C773.72 226.776 763.271 233.521 753.171 240.71C665.402 302.974 631.968 388.465 647.757 485.456C654.257 525.27 666.797 561.434 685.487 593.396C696.284 611.756 709.055 628.454 724.03 643.607C726.236 645.929 728.443 648.14 730.649 650.242C760.833 678.996 799.145 701.669 845.815 717.042C967.135 756.855 1080.68 737.058 1188.88 676.564C1386.24 537.325 1373.59 296.118 1275.02 174.686C1188.3 67.7403 1075.57 2.4895 930.565 0.0564108C907.695 -0.275371 530.5 0.941232 254.192 1.4942C228.304 1.6048 203.459 1.60475 179.775 1.71535H1.91699ZM9.57916 1.71535H1.91699H1.80078" fill="#F2DEBA"/>
<path d="M1.80058 170.925C1.68449 193.486 1.68443 217.154 1.56834 241.817C0.987858 505.031 -0.289061 864.353 0.0592243 886.141C2.61332 1024.27 71.1095 1131.66 183.374 1214.27C310.848 1308.17 564.051 1320.22 710.216 1132.21C773.72 1029.14 794.5 920.978 752.706 805.407C736.569 760.948 712.769 724.45 682.585 695.696C680.379 693.594 678.057 691.494 675.619 689.392C659.714 675.126 642.183 662.961 622.911 652.676C589.36 634.869 551.396 622.925 509.602 616.732C407.786 601.691 318.045 633.542 252.683 717.151C245.137 726.773 238.055 736.726 231.786 747.013C189.643 815.801 181.4 898.858 224.936 971.188C264.757 1037.32 339.29 1075.48 419.28 1074.82C449.464 1074.59 479.649 1069.17 506.236 1055.79C546.754 1035.22 576.125 995.85 583.207 952.718C594.236 885.366 550.816 813.59 481.855 794.126C475.006 792.245 462.004 788.927 457.707 789.481C457.01 789.591 456.43 789.813 456.199 790.476L425.201 874.086C424.969 874.528 425.201 874.97 425.665 875.302C427.871 876.96 439.365 881.605 454.922 892.113C475.122 905.716 488.357 932.7 471.174 953.824C463.86 962.782 453.063 968.866 441.687 972.625C400.937 986.228 352.641 969.418 326.752 936.461C300.746 903.614 296.568 857.607 311.311 819.01C351.945 712.838 492.536 686.627 584.136 749.667C622.911 776.319 650.078 817.019 662.5 860.925C664.474 868.113 666.215 875.413 667.492 882.712C691.755 1020.73 589.824 1144.71 446.911 1165.28C251.754 1193.37 109.189 1031.68 109.537 885.145C109.537 885.145 108.841 514.542 108.957 343.563C109.189 229.541 109.305 115.517 109.305 1.49414H1.80058V170.925ZM1.80058 1.49414V1.71529V8.79333" fill="#F2DEBA"/>
<path d="M179.775 5655.17C203.459 5655.27 228.304 5655.27 254.192 5655.39C530.5 5655.94 907.695 5657.15 930.565 5656.82C1075.57 5654.4 1188.3 5589.13 1275.02 5482.19C1373.59 5360.77 1386.24 5119.56 1188.88 4980.31C1080.68 4919.82 967.135 4900.02 845.815 4939.83C799.145 4955.21 760.833 4977.89 730.649 5006.64C728.443 5008.74 726.236 5010.95 724.03 5013.27C709.055 5028.42 696.284 5045.13 685.487 5063.48C666.797 5095.45 654.257 5131.62 647.757 5171.43C631.968 5268.42 665.402 5353.91 753.171 5416.16C763.271 5423.36 773.72 5430.1 784.517 5436.07C856.728 5476.23 943.916 5484.08 1019.84 5442.6C1089.27 5404.67 1129.32 5333.66 1128.62 5257.47C1128.39 5228.71 1122.7 5199.96 1108.65 5174.63C1087.06 5136.03 1045.73 5108.05 1000.45 5101.31C929.752 5090.8 854.406 5132.16 833.973 5197.85C831.999 5204.39 828.518 5216.77 829.097 5220.86C829.213 5221.52 829.445 5222.07 830.142 5222.29L917.91 5251.83C918.375 5252.05 918.839 5251.83 919.187 5251.38C920.929 5249.28 925.805 5238.33 936.834 5223.51C951.114 5204.27 979.44 5191.66 1001.62 5208.03C1011.02 5215.01 1017.4 5225.29 1021.35 5236.13C1035.63 5274.93 1017.99 5320.95 983.389 5345.62C948.908 5370.38 900.613 5374.37 860.095 5360.32C748.643 5321.61 721.129 5187.68 787.303 5100.42C815.281 5063.48 858.005 5037.61 904.096 5025.77C911.641 5023.89 919.303 5022.23 926.966 5021.02C1071.85 4997.9 1202 5095 1223.59 5231.15C1253.08 5417.05 1083.35 5552.86 929.52 5552.54C929.52 5552.54 540.484 5553.2 361 5553.08C241.305 5552.86 121.612 5552.76 1.91699 5552.76V5655.17H179.775Z" fill="#F2DEBA"/>
<path d="M1.80058 5655.39H109.305C109.305 5541.37 109.189 5427.35 108.957 5313.31C108.841 5142.34 109.537 4771.74 109.537 4771.74C109.189 4625.2 251.754 4463.5 446.911 4491.6C589.824 4512.18 691.755 4636.15 667.492 4774.17C666.215 4781.47 664.474 4788.77 662.5 4795.95C650.078 4839.87 622.911 4880.56 584.136 4907.22C492.536 4970.26 351.945 4944.04 311.311 4837.87C296.568 4799.27 300.746 4753.27 326.752 4720.41C352.641 4687.46 400.937 4670.65 441.687 4684.26C453.063 4688.02 463.86 4694.09 471.174 4703.05C488.357 4724.18 475.122 4751.16 454.922 4764.77C439.365 4775.28 427.871 4779.93 425.665 4781.59C425.201 4781.91 424.969 4782.36 425.201 4782.8L456.199 4866.41C456.43 4867.06 457.01 4867.29 457.707 4867.41C462.004 4867.95 475.006 4864.64 481.855 4862.75C550.816 4843.29 594.236 4771.51 583.207 4704.17C576.125 4661.03 546.754 4621.66 506.236 4601.09C479.649 4587.7 449.464 4582.29 419.28 4582.07C339.29 4581.41 264.757 4619.56 224.936 4685.7C181.4 4758.02 189.643 4841.08 231.786 4909.87C238.055 4920.15 245.137 4930.1 252.683 4939.73C318.045 5023.34 407.786 5055.19 509.602 5040.15C551.396 5033.96 589.36 5022.01 622.911 5004.21C642.183 4993.93 659.714 4981.75 675.619 4967.49C678.057 4965.38 680.379 4963.28 682.585 4961.19C712.769 4932.43 736.569 4895.93 752.706 4851.48C794.5 4735.91 773.72 4627.74 710.216 4524.66C564.051 4336.66 310.848 4348.71 183.374 4442.61C71.1095 4525.23 2.61332 4632.61 0.0592243 4770.74C-0.289061 4792.53 0.987858 5151.85 1.56834 5415.07C1.68443 5439.73 1.68449 5463.4 1.80058 5485.96V5655.39ZM1.80058 5648.09V5655.17V5655.39" fill="#F2DEBA"/>
<path d="M8408.51 5655.17V5552.76C8288.82 5552.76 8169.12 5552.86 8049.42 5553.08C7869.95 5553.2 7480.91 5552.54 7480.91 5552.54C7327.08 5552.86 7157.36 5417.05 7186.83 5231.15C7208.43 5095 7338.57 4997.9 7483.46 5021.02C7491.12 5022.23 7498.79 5023.89 7506.33 5025.77C7552.42 5037.61 7595.15 5063.48 7623.13 5100.42C7689.3 5187.68 7661.79 5321.61 7550.33 5360.32C7509.82 5374.37 7461.52 5370.38 7427.04 5345.62C7392.44 5320.95 7374.8 5274.93 7389.08 5236.13C7393.02 5225.29 7399.41 5215.01 7408.81 5208.03C7430.99 5191.66 7459.31 5204.27 7473.59 5223.51C7484.62 5238.33 7489.5 5249.28 7491.24 5251.38C7491.59 5251.83 7492.05 5252.05 7492.52 5251.83L7580.29 5222.29C7580.98 5222.07 7581.22 5221.52 7581.33 5220.86C7581.91 5216.77 7578.43 5204.39 7576.46 5197.85C7556.02 5132.16 7480.68 5090.8 7409.97 5101.31C7364.7 5108.05 7323.36 5136.03 7301.77 5174.63C7287.72 5199.96 7282.03 5228.71 7281.8 5257.47C7281.12 5333.66 7321.16 5404.67 7390.58 5442.6C7466.51 5484.08 7553.7 5476.23 7625.91 5436.07C7636.71 5430.1 7647.16 5423.36 7657.26 5416.16C7745.03 5353.91 7778.45 5268.42 7762.68 5171.43C7756.17 5131.62 7743.64 5095.45 7724.94 5063.48C7714.15 5045.13 7701.38 5028.42 7686.4 5013.27C7684.19 5010.95 7681.99 5008.74 7679.78 5006.64C7649.6 4977.89 7611.28 4955.21 7564.61 4939.83C7443.29 4900.02 7329.75 4919.82 7221.55 4980.31C7024.18 5119.56 7036.85 5360.77 7135.4 5482.19C7222.13 5589.13 7334.86 5654.4 7479.86 5656.82C7502.73 5657.15 7879.92 5655.94 8156.23 5655.39C8182.12 5655.27 8206.97 5655.27 8230.65 5655.17H8408.51ZM8400.85 5655.17H8408.51H8408.63" fill="#F2DEBA"/>
<path d="M8408.63 5485.96C8408.74 5463.4 8408.74 5439.73 8408.86 5415.07C8409.44 5151.85 8410.72 4792.53 8410.37 4770.74C8407.82 4632.61 8339.32 4525.23 8227.05 4442.61C8099.58 4348.71 7846.37 4336.66 7700.22 4524.66C7636.71 4627.74 7615.93 4735.91 7657.72 4851.48C7673.86 4895.93 7697.66 4932.43 7727.85 4961.19C7730.05 4963.28 7732.36 4965.38 7734.81 4967.49C7750.72 4981.75 7768.25 4993.93 7787.52 5004.21C7821.06 5022.01 7859.04 5033.96 7900.82 5040.15C8002.64 5055.19 8092.38 5023.34 8157.74 4939.73C8165.29 4930.1 8172.37 4920.15 8178.64 4909.87C8220.78 4841.08 8229.03 4758.02 8185.49 4685.7C8145.67 4619.56 8071.13 4581.41 7991.14 4582.07C7960.96 4582.29 7930.77 4587.7 7904.2 4601.09C7863.67 4621.66 7834.31 4661.03 7827.21 4704.17C7816.2 4771.51 7859.62 4843.29 7928.58 4862.75C7935.43 4864.64 7948.42 4867.95 7952.73 4867.41C7953.41 4867.29 7953.99 4867.06 7954.24 4866.41L7985.22 4782.8C7985.47 4782.36 7985.22 4781.91 7984.76 4781.59C7982.55 4779.93 7971.06 4775.28 7955.5 4764.77C7935.3 4751.16 7922.08 4724.18 7939.25 4703.05C7946.56 4694.09 7957.36 4688.02 7968.75 4684.26C8009.49 4670.65 8057.78 4687.46 8083.67 4720.41C8109.68 4753.27 8113.86 4799.27 8099.11 4837.87C8058.48 4944.04 7917.9 4970.26 7826.3 4907.22C7787.52 4880.56 7760.34 4839.87 7747.93 4795.95C7745.96 4788.77 7744.22 4781.47 7742.94 4774.17C7718.66 4636.15 7820.61 4512.18 7963.51 4491.6C8158.67 4463.5 8301.24 4625.2 8300.89 4771.74C8300.89 4771.74 8301.59 5142.34 8301.47 5313.31C8301.24 5427.35 8301.12 5541.37 8301.12 5655.39H8408.63V5485.96ZM8408.63 5655.39V5655.17V5648.09" fill="#F2DEBA"/>
<path d="M4261.99 2416.28C4170.89 2416.28 4081.86 2442.51 4006.13 2491.64C3930.38 2540.77 3871.35 2610.6 3836.49 2692.31C3801.65 2774.01 3792.52 2863.9 3810.3 2950.64C3828.06 3037.37 3871.92 3117.05 3936.33 3179.58C4000.74 3242.12 4082.81 3284.7 4172.15 3301.94C4261.49 3319.2 4354.08 3310.34 4438.23 3276.51C4522.38 3242.66 4594.32 3185.36 4644.92 3111.82C4695.53 3038.29 4722.53 2951.85 4722.53 2863.41C4722.53 2744.83 4674.02 2631.09 4587.65 2547.24C4501.28 2463.39 4384.13 2416.28 4261.99 2416.28ZM4506.98 2892L4112.22 3083.62C4107.2 3086.06 4101.62 3087.2 4096.02 3086.96C4090.42 3086.71 4084.97 3085.08 4080.2 3082.21C4075.44 3079.35 4071.5 3075.35 4068.77 3070.6C4066.04 3065.84 4064.6 3060.48 4064.6 3055.03V2671.78C4064.62 2666.34 4066.05 2660.99 4068.78 2656.24C4071.52 2651.49 4075.45 2647.49 4080.21 2644.63C4084.99 2641.77 4090.43 2640.14 4096.03 2639.9C4101.63 2639.65 4107.2 2640.81 4112.22 2643.24L4506.98 2834.85C4512.42 2837.52 4517.01 2841.59 4520.22 2846.63C4523.42 2851.68 4525.13 2857.49 4525.13 2863.41C4525.13 2869.34 4523.42 2875.14 4520.22 2880.19C4517.01 2885.23 4512.42 2889.3 4506.98 2891.97V2892Z" fill="#F2DEBA"/>
<path d="M1891.72 1950.49H1959.77C1958.86 1970.19 1953.55 1987.56 1943.83 2002.6C1934.11 2017.64 1920.62 2029.37 1903.39 2037.79C1886.28 2046.09 1866.06 2050.23 1842.72 2050.23C1817.58 2050.23 1796 2044.66 1777.98 2033.51C1760.09 2022.37 1746.42 2006.55 1736.95 1986.07C1727.49 1965.46 1722.76 1940.97 1722.76 1912.58V1897.22C1722.76 1868.83 1727.69 1844.33 1737.54 1823.72C1747.39 1802.99 1761.26 1787.04 1779.15 1775.9C1797.03 1764.75 1817.9 1759.17 1841.75 1759.17C1866.38 1759.17 1887.18 1763.58 1904.16 1772.4C1921.14 1781.21 1934.3 1793.33 1943.63 1808.75C1952.96 1824.05 1958.47 1841.48 1960.16 1861.06H1892.11C1891.59 1845.11 1887.57 1833.06 1880.05 1824.89C1872.67 1816.73 1859.9 1812.64 1841.75 1812.64C1830.6 1812.64 1821.34 1815.49 1813.95 1821.2C1806.56 1826.77 1801.05 1835.78 1797.42 1848.22C1793.79 1860.54 1791.98 1876.74 1791.98 1896.83V1912.58C1791.98 1932.54 1793.6 1948.74 1796.84 1961.19C1800.21 1973.5 1805.59 1982.51 1812.98 1988.21C1820.49 1993.91 1830.41 1996.77 1842.72 1996.77C1853.09 1996.77 1861.84 1995.15 1868.97 1991.91C1876.1 1988.54 1881.61 1983.48 1885.5 1976.74C1889.39 1969.87 1891.46 1961.12 1891.72 1950.49ZM2137.87 1971.1C2137.87 1965.14 2136.64 1959.95 2134.17 1955.55C2131.71 1951.14 2126.91 1946.93 2119.78 1942.91C2112.66 1938.76 2102.03 1934.35 2087.9 1929.69C2071.31 1924.11 2055.62 1917.57 2040.85 1910.05C2026.2 1902.4 2014.27 1892.88 2005.07 1881.47C1996 1870.06 1991.46 1855.87 1991.46 1838.89C1991.46 1822.69 1996.19 1808.62 2005.66 1796.7C2015.12 1784.77 2028.01 1775.57 2044.35 1769.09C2060.81 1762.61 2079.47 1759.37 2100.34 1759.37C2121.08 1759.37 2139.36 1763 2155.17 1770.26C2171.11 1777.39 2183.56 1787.56 2192.5 1800.78C2201.57 1813.87 2206.11 1829.36 2206.11 1847.25H2138.26C2138.26 1840.12 2136.76 1833.84 2133.78 1828.39C2130.93 1822.95 2126.59 1818.67 2120.76 1815.56C2114.92 1812.45 2107.6 1810.89 2098.79 1810.89C2090.23 1810.89 2083.04 1812.19 2077.2 1814.78C2071.37 1817.37 2066.97 1820.87 2063.98 1825.28C2061 1829.56 2059.51 1834.29 2059.51 1839.47C2059.51 1845.05 2061.59 1850.04 2065.73 1854.44C2069.88 1858.85 2075.84 1862.87 2083.62 1866.5C2091.4 1870.13 2100.67 1873.69 2111.42 1877.19C2131.52 1883.54 2148.56 1890.93 2162.56 1899.36C2176.69 1907.78 2187.45 1917.83 2194.83 1929.49C2202.35 1941.03 2206.11 1954.77 2206.11 1970.71C2206.11 1987.69 2201.77 2002.15 2193.08 2014.07C2184.4 2025.87 2172.22 2034.87 2156.53 2041.1C2140.98 2047.19 2122.64 2050.23 2101.51 2050.23C2086.99 2050.23 2072.67 2048.42 2058.54 2044.79C2044.54 2041.03 2031.84 2035.33 2020.43 2027.68C2009.03 2019.9 1999.89 2009.99 1993.02 1997.93C1986.28 1985.75 1982.91 1971.3 1982.91 1954.58H2051.35C2051.35 1962.87 2052.45 1969.87 2054.65 1975.57C2056.85 1981.28 2060.1 1985.88 2064.37 1989.38C2068.65 1992.75 2073.9 1995.21 2080.12 1996.77C2086.34 1998.19 2093.47 1998.91 2101.51 1998.91C2110.19 1998.91 2117.19 1997.67 2122.51 1995.21C2127.82 1992.62 2131.71 1989.25 2134.17 1985.1C2136.64 1980.82 2137.87 1976.16 2137.87 1971.1ZM2293.22 1920.16L2241.11 1907.91L2258.22 1763.26H2423.68V1814.2H2311.69L2305.27 1870.39C2308.38 1868.57 2313.63 1866.43 2321.02 1863.97C2328.54 1861.38 2336.83 1860.08 2345.91 1860.08C2364.57 1860.08 2380.38 1863.78 2393.35 1871.17C2406.44 1878.55 2416.35 1889.38 2423.09 1903.64C2429.96 1917.76 2433.4 1934.94 2433.4 1955.16C2433.4 1971.36 2429.83 1986.72 2422.7 2001.24C2415.71 2015.76 2404.95 2027.55 2390.43 2036.62C2375.91 2045.7 2357.44 2050.23 2335.02 2050.23C2322.44 2050.23 2310.2 2048.29 2298.27 2044.4C2286.35 2040.51 2275.59 2034.94 2266 2027.68C2256.53 2020.29 2249.02 2011.41 2243.44 2001.04C2238 1990.54 2235.34 1978.81 2235.47 1965.85H2301.38C2302.03 1976.09 2305.33 1984.32 2311.3 1990.54C2317.26 1996.64 2325.04 1999.68 2334.63 1999.68C2343.31 1999.68 2350.05 1997.48 2354.85 1993.07C2359.65 1988.54 2362.95 1982.57 2364.77 1975.18C2366.71 1967.67 2367.68 1959.5 2367.68 1950.69C2367.68 1941.35 2366.32 1933.32 2363.6 1926.58C2360.88 1919.84 2356.53 1914.65 2350.57 1911.02C2344.74 1907.26 2337.03 1905.38 2327.43 1905.38C2317.97 1905.38 2310.52 1907.01 2305.08 1910.25C2299.63 1913.49 2295.68 1916.79 2293.22 1920.16ZM2664.77 1878.94V1930.66C2664.77 1957.88 2660.62 1980.37 2652.33 1998.13C2644.03 2015.76 2632.49 2028.85 2617.72 2037.4C2602.94 2045.96 2585.83 2050.23 2566.39 2050.23C2546.94 2050.23 2529.77 2045.96 2514.86 2037.4C2500.09 2028.85 2488.49 2015.76 2480.06 1998.13C2471.64 1980.37 2467.42 1957.88 2467.42 1930.66V1878.94C2467.42 1851.72 2471.57 1829.3 2479.87 1811.67C2488.29 1793.91 2499.89 1780.76 2514.67 1772.2C2529.45 1763.65 2546.56 1759.37 2566 1759.37C2585.44 1759.37 2602.55 1763.65 2617.33 1772.2C2632.23 1780.76 2643.84 1793.91 2652.13 1811.67C2660.56 1829.3 2664.77 1851.72 2664.77 1878.94ZM2599.25 1938.63V1870.58C2599.25 1855.55 2597.89 1843.62 2595.16 1834.81C2592.57 1825.86 2588.75 1819.51 2583.69 1815.75C2578.77 1811.86 2572.87 1809.92 2566 1809.92C2559.13 1809.92 2553.23 1811.86 2548.31 1815.75C2543.38 1819.51 2539.56 1825.86 2536.83 1834.81C2534.24 1843.62 2532.95 1855.55 2532.95 1870.58V1938.63C2532.95 1953.93 2534.24 1966.05 2536.83 1974.99C2539.56 1983.8 2543.45 1990.16 2548.5 1994.04C2553.56 1997.8 2559.52 1999.68 2566.39 1999.68C2573.13 1999.68 2578.96 1997.8 2583.89 1994.04C2588.81 1990.16 2592.57 1983.8 2595.16 1974.99C2597.89 1966.05 2599.25 1953.93 2599.25 1938.63ZM2755.76 1835.97L2785.31 1893.91L2815.84 1835.97H2883.89L2828.67 1938.44L2886.81 2046.35H2818.17L2785.31 1984.13L2752.65 2046.35H2684.02L2742.15 1938.44L2687.13 1835.97H2755.76ZM3054.4 1971.1C3054.4 1965.14 3053.17 1959.95 3050.71 1955.55C3048.25 1951.14 3043.45 1946.93 3036.32 1942.91C3029.19 1938.76 3018.56 1934.35 3004.44 1929.69C2987.84 1924.11 2972.16 1917.57 2957.38 1910.05C2942.74 1902.4 2930.81 1892.88 2921.61 1881.47C2912.54 1870.06 2908 1855.87 2908 1838.89C2908 1822.69 2912.73 1808.62 2922.19 1796.7C2931.65 1784.77 2944.55 1775.57 2960.88 1769.09C2977.35 1762.61 2996.01 1759.37 3016.88 1759.37C3037.62 1759.37 3055.89 1763 3071.71 1770.26C3087.65 1777.39 3100.09 1787.56 3109.04 1800.78C3118.11 1813.87 3122.65 1829.36 3122.65 1847.25H3054.79C3054.79 1840.12 3053.3 1833.84 3050.32 1828.39C3047.47 1822.95 3043.13 1818.67 3037.29 1815.56C3031.46 1812.45 3024.14 1810.89 3015.32 1810.89C3006.77 1810.89 2999.57 1812.19 2993.74 1814.78C2987.91 1817.37 2983.5 1820.87 2980.52 1825.28C2977.54 1829.56 2976.05 1834.29 2976.05 1839.47C2976.05 1845.05 2978.12 1850.04 2982.27 1854.44C2986.42 1858.85 2992.38 1862.87 3000.16 1866.5C3007.94 1870.13 3017.2 1873.69 3027.96 1877.19C3048.05 1883.54 3065.1 1890.93 3079.1 1899.36C3093.22 1907.78 3103.98 1917.83 3111.37 1929.49C3118.89 1941.03 3122.65 1954.77 3122.65 1970.71C3122.65 1987.69 3118.31 2002.15 3109.62 2014.07C3100.94 2025.87 3088.75 2034.87 3073.07 2041.1C3057.51 2047.19 3039.17 2050.23 3018.05 2050.23C3003.53 2050.23 2989.21 2048.42 2975.08 2044.79C2961.08 2041.03 2948.38 2035.33 2936.97 2027.68C2925.56 2019.9 2916.42 2009.99 2909.55 1997.93C2902.81 1985.75 2899.44 1971.3 2899.44 1954.58H2967.88C2967.88 1962.87 2968.98 1969.87 2971.19 1975.57C2973.39 1981.28 2976.63 1985.88 2980.91 1989.38C2985.19 1992.75 2990.44 1995.21 2996.66 1996.77C3002.88 1998.19 3010.01 1998.91 3018.05 1998.91C3026.73 1998.91 3033.73 1997.67 3039.04 1995.21C3044.36 1992.62 3048.25 1989.25 3050.71 1985.1C3053.17 1980.82 3054.4 1976.16 3054.4 1971.1ZM3218.89 1747.7V2046.35H3153.37V1747.7H3218.89ZM3211.11 1933.97L3195.75 1934.35C3195.75 1914.65 3198.93 1897.09 3205.28 1881.66C3211.63 1866.24 3220.58 1854.12 3232.11 1845.31C3243.65 1836.49 3257.13 1832.09 3272.55 1832.09C3286.42 1832.09 3298.67 1834.81 3309.3 1840.25C3319.93 1845.7 3328.22 1854.57 3334.19 1866.89C3340.15 1879.07 3343.13 1895.34 3343.13 1915.69V2046.35H3277.22V1915.3C3277.22 1906.75 3275.99 1900.14 3273.52 1895.47C3271.19 1890.67 3267.82 1887.37 3263.41 1885.55C3259.01 1883.61 3253.63 1882.64 3247.28 1882.64C3239.63 1882.64 3233.41 1883.93 3228.61 1886.53C3223.82 1889.12 3220.12 1892.75 3217.53 1897.41C3215.07 1901.95 3213.38 1907.33 3212.47 1913.55C3211.57 1919.77 3211.11 1926.58 3211.11 1933.97ZM3448.71 1835.97V2046.35H3382.99V1835.97H3448.71ZM3379.1 1781.73C3379.1 1772.4 3382.47 1764.75 3389.21 1758.79C3395.95 1752.82 3404.7 1749.84 3415.46 1749.84C3426.22 1749.84 3434.97 1752.82 3441.71 1758.79C3448.45 1764.75 3451.82 1772.4 3451.82 1781.73C3451.82 1791.06 3448.45 1798.71 3441.71 1804.67C3434.97 1810.63 3426.22 1813.61 3415.46 1813.61C3404.7 1813.61 3395.95 1810.63 3389.21 1804.67C3382.47 1798.71 3379.1 1791.06 3379.1 1781.73ZM3555.25 1888.08V2046.35H3489.73V1835.97H3550.97L3555.25 1888.08ZM3617.47 1834.42L3616.3 1895.27C3613.71 1895.02 3610.21 1894.69 3605.8 1894.3C3601.4 1893.91 3597.7 1893.72 3594.72 1893.72C3584.48 1893.72 3576.12 1895.27 3569.64 1898.39C3563.29 1901.37 3558.62 1905.97 3555.64 1912.19C3552.66 1918.28 3551.23 1925.93 3551.36 1935.13L3539.5 1927.36C3539.5 1908.56 3541.9 1892.03 3546.7 1877.78C3551.62 1863.39 3558.56 1852.18 3567.5 1844.14C3576.44 1836.1 3587.07 1832.09 3599.39 1832.09C3602.63 1832.09 3605.8 1832.28 3608.91 1832.67C3612.15 1833.06 3615.01 1833.64 3617.47 1834.42ZM3741.51 1993.46V1906.75C3741.51 1897.93 3739.57 1890.93 3735.68 1885.75C3731.92 1880.43 3725.51 1877.78 3716.43 1877.78C3711.51 1877.78 3707.3 1878.62 3703.8 1880.3C3700.3 1881.99 3697.64 1884.52 3695.82 1887.89C3694.01 1891.26 3693.1 1895.53 3693.1 1900.72H3627.58C3627.58 1887.63 3631.34 1875.96 3638.86 1865.72C3646.5 1855.35 3657.26 1847.19 3671.13 1841.22C3685 1835.13 3701.27 1832.09 3719.93 1832.09C3736.65 1832.09 3751.56 1834.87 3764.65 1840.45C3777.87 1846.02 3788.31 1854.38 3795.95 1865.53C3803.6 1876.54 3807.43 1890.41 3807.43 1907.13V1993.27C3807.43 2007.01 3808.2 2017.44 3809.76 2024.57C3811.31 2031.57 3813.52 2037.73 3816.37 2043.04V2046.35H3750.65C3747.54 2039.86 3745.21 2031.96 3743.65 2022.63C3742.23 2013.16 3741.51 2003.44 3741.51 1993.46ZM3749.49 1917.83L3749.88 1952.83H3720.91C3708.72 1952.83 3700.23 1955.94 3695.43 1962.16C3690.64 1968.38 3688.24 1975.51 3688.24 1983.55C3688.24 1989.51 3690.25 1994.37 3694.27 1998.13C3698.42 2001.76 3703.54 2003.57 3709.63 2003.57C3716.89 2003.57 3723.04 2002.21 3728.1 1999.49C3733.28 1996.64 3737.24 1993.2 3739.96 1989.18C3742.68 1985.17 3744.04 1981.41 3744.04 1977.91L3758.43 2004.74C3755.84 2009.92 3752.86 2015.17 3749.49 2020.49C3746.25 2025.8 3742.16 2030.73 3737.24 2035.26C3732.44 2039.67 3726.54 2043.3 3719.54 2046.15C3712.54 2048.87 3704.05 2050.23 3694.07 2050.23C3681.11 2050.23 3669.19 2047.58 3658.3 2042.26C3647.54 2036.95 3638.92 2029.56 3632.44 2020.1C3625.96 2010.51 3622.72 1999.49 3622.72 1987.04C3622.72 1965.4 3630.69 1948.48 3646.63 1936.3C3662.58 1923.99 3687.46 1917.83 3721.29 1917.83H3749.49ZM4016.83 1995.79V2046.35H3853.89V1995.79H4016.83ZM4014.88 1871.36L3883.25 2046.35H3838.34V2009.79L3969.77 1835.97H4014.88V1871.36ZM3993.3 1835.97V1886.53H3842.23V1835.97H3993.3ZM4301.27 2001.24C4301.27 2032.48 4295.51 2058.27 4283.97 2078.62C4272.43 2099.1 4256.17 2115.24 4235.17 2127.03C4214.3 2138.83 4189.87 2147.38 4161.87 2152.7L4141.07 2096.7C4158.3 2093.33 4173.79 2089.18 4187.53 2084.26C4201.4 2079.46 4212.94 2073.76 4222.14 2067.15C4231.35 2060.54 4237.63 2053.15 4241 2044.98C4238.02 2045.5 4235.04 2045.96 4232.06 2046.35C4229.21 2046.6 4226.55 2046.73 4224.09 2046.73C4199.33 2046.73 4179.63 2041.23 4164.98 2030.21C4150.46 2019.06 4143.2 2000.59 4143.2 1974.8C4143.2 1964.3 4144.76 1953.54 4147.87 1942.52C4151.11 1931.5 4155.84 1921.33 4162.06 1912C4168.42 1902.66 4176.32 1895.14 4185.78 1889.44C4195.25 1883.61 4206.2 1880.69 4218.64 1880.69C4232.9 1880.69 4245.21 1884.13 4255.58 1891C4265.95 1897.74 4274.51 1906.94 4281.25 1918.61C4287.99 1930.14 4292.98 1943.04 4296.22 1957.3C4299.59 1971.56 4301.27 1986.2 4301.27 2001.24ZM4222.92 1986.66C4228.49 1986.66 4233.48 1986.4 4237.89 1985.88C4242.3 1985.23 4245.73 1984.65 4248.2 1984.13C4247.68 1980.37 4246.77 1975.96 4245.47 1970.91C4244.18 1965.85 4242.43 1960.93 4240.22 1956.13C4238.02 1951.21 4235.1 1947.19 4231.47 1944.08C4227.98 1940.84 4223.57 1939.22 4218.25 1939.22C4212.42 1939.22 4207.82 1941.22 4204.45 1945.24C4201.21 1949.13 4198.88 1953.67 4197.45 1958.85C4196.15 1964.04 4195.51 1968.57 4195.51 1972.46C4195.51 1978.94 4198.23 1982.96 4203.67 1984.52C4209.12 1985.94 4215.53 1986.66 4222.92 1986.66ZM4596.22 1950.49H4664.27C4663.37 1970.19 4658.05 1987.56 4648.33 2002.6C4638.61 2017.64 4625.13 2029.37 4607.89 2037.79C4590.78 2046.09 4570.56 2050.23 4547.23 2050.23C4522.08 2050.23 4500.5 2044.66 4482.48 2033.51C4464.6 2022.37 4450.92 2006.55 4441.46 1986.07C4432 1965.46 4427.26 1940.97 4427.26 1912.58V1897.22C4427.26 1868.83 4432.19 1844.33 4442.04 1823.72C4451.89 1802.99 4465.76 1787.04 4483.65 1775.9C4501.54 1764.75 4522.41 1759.17 4546.26 1759.17C4570.88 1759.17 4591.69 1763.58 4608.67 1772.4C4625.65 1781.21 4638.8 1793.33 4648.14 1808.75C4657.47 1824.05 4662.98 1841.48 4664.66 1861.06H4596.61C4596.09 1845.11 4592.08 1833.06 4584.56 1824.89C4577.17 1816.73 4564.4 1812.64 4546.26 1812.64C4535.11 1812.64 4525.84 1815.49 4518.45 1821.2C4511.06 1826.77 4505.55 1835.78 4501.93 1848.22C4498.3 1860.54 4496.48 1876.74 4496.48 1896.83V1912.58C4496.48 1932.54 4498.1 1948.74 4501.34 1961.19C4504.71 1973.5 4510.09 1982.51 4517.48 1988.21C4525 1993.91 4534.91 1996.77 4547.23 1996.77C4557.6 1996.77 4566.35 1995.15 4573.48 1991.91C4580.6 1988.54 4586.11 1983.48 4590 1976.74C4593.89 1969.87 4595.96 1961.12 4596.22 1950.49ZM4842.37 1971.1C4842.37 1965.14 4841.14 1959.95 4838.68 1955.55C4836.21 1951.14 4831.42 1946.93 4824.29 1942.91C4817.16 1938.76 4806.53 1934.35 4792.4 1929.69C4775.81 1924.11 4760.13 1917.57 4745.35 1910.05C4730.7 1902.4 4718.78 1892.88 4709.58 1881.47C4700.5 1870.06 4695.97 1855.87 4695.97 1838.89C4695.97 1822.69 4700.7 1808.62 4710.16 1796.7C4719.62 1784.77 4732.52 1775.57 4748.85 1769.09C4765.31 1762.61 4783.98 1759.37 4804.85 1759.37C4825.58 1759.37 4843.86 1763 4859.67 1770.26C4875.62 1777.39 4888.06 1787.56 4897 1800.78C4906.08 1813.87 4910.61 1829.36 4910.61 1847.25H4842.76C4842.76 1840.12 4841.27 1833.84 4838.29 1828.39C4835.44 1822.95 4831.09 1818.67 4825.26 1815.56C4819.43 1812.45 4812.1 1810.89 4803.29 1810.89C4794.74 1810.89 4787.54 1812.19 4781.71 1814.78C4775.88 1817.37 4771.47 1820.87 4768.49 1825.28C4765.51 1829.56 4764.02 1834.29 4764.02 1839.47C4764.02 1845.05 4766.09 1850.04 4770.24 1854.44C4774.38 1858.85 4780.35 1862.87 4788.12 1866.5C4795.9 1870.13 4805.17 1873.69 4815.93 1877.19C4836.02 1883.54 4853.06 1890.93 4867.06 1899.36C4881.19 1907.78 4891.95 1917.83 4899.34 1929.49C4906.86 1941.03 4910.61 1954.77 4910.61 1970.71C4910.61 1987.69 4906.27 2002.15 4897.59 2014.07C4888.9 2025.87 4876.72 2034.87 4861.04 2041.1C4845.48 2047.19 4827.14 2050.23 4806.01 2050.23C4791.49 2050.23 4777.17 2048.42 4763.04 2044.79C4749.04 2041.03 4736.34 2035.33 4724.94 2027.68C4713.53 2019.9 4704.39 2009.99 4697.52 1997.93C4690.78 1985.75 4687.41 1971.3 4687.41 1954.58H4755.85C4755.85 1962.87 4756.95 1969.87 4759.15 1975.57C4761.36 1981.28 4764.6 1985.88 4768.88 1989.38C4773.15 1992.75 4778.4 1995.21 4784.62 1996.77C4790.85 1998.19 4797.98 1998.91 4806.01 1998.91C4814.7 1998.91 4821.7 1997.67 4827.01 1995.21C4832.32 1992.62 4836.21 1989.25 4838.68 1985.1C4841.14 1980.82 4842.37 1976.16 4842.37 1971.1ZM4997.72 1920.16L4945.61 1907.91L4962.72 1763.26H5128.18V1814.2H5016.19L5009.77 1870.39C5012.88 1868.57 5018.13 1866.43 5025.52 1863.97C5033.04 1861.38 5041.34 1860.08 5050.41 1860.08C5069.07 1860.08 5084.89 1863.78 5097.85 1871.17C5110.94 1878.55 5120.86 1889.38 5127.6 1903.64C5134.47 1917.76 5137.9 1934.94 5137.9 1955.16C5137.9 1971.36 5134.34 1986.72 5127.21 2001.24C5120.21 2015.76 5109.45 2027.55 5094.93 2036.62C5080.42 2045.7 5061.94 2050.23 5039.52 2050.23C5026.95 2050.23 5014.7 2048.29 5002.77 2044.4C4990.85 2040.51 4980.09 2034.94 4970.5 2027.68C4961.04 2020.29 4953.52 2011.41 4947.94 2001.04C4942.5 1990.54 4939.84 1978.81 4939.97 1965.85H5005.88C5006.53 1976.09 5009.84 1984.32 5015.8 1990.54C5021.76 1996.64 5029.54 1999.68 5039.13 1999.68C5047.82 1999.68 5054.56 1997.48 5059.35 1993.07C5064.15 1988.54 5067.45 1982.57 5069.27 1975.18C5071.21 1967.67 5072.18 1959.5 5072.18 1950.69C5072.18 1941.35 5070.82 1933.32 5068.1 1926.58C5065.38 1919.84 5061.04 1914.65 5055.08 1911.02C5049.24 1907.26 5041.53 1905.38 5031.94 1905.38C5022.48 1905.38 5015.02 1907.01 5009.58 1910.25C5004.13 1913.49 5000.18 1916.79 4997.72 1920.16ZM5369.27 1878.94V1930.66C5369.27 1957.88 5365.12 1980.37 5356.83 1998.13C5348.53 2015.76 5337 2028.85 5322.22 2037.4C5307.44 2045.96 5290.33 2050.23 5270.89 2050.23C5251.45 2050.23 5234.27 2045.96 5219.37 2037.4C5204.59 2028.85 5192.99 2015.76 5184.56 1998.13C5176.14 1980.37 5171.93 1957.88 5171.93 1930.66V1878.94C5171.93 1851.72 5176.07 1829.3 5184.37 1811.67C5192.8 1793.91 5204.4 1780.76 5219.17 1772.2C5233.95 1763.65 5251.06 1759.37 5270.5 1759.37C5289.94 1759.37 5307.05 1763.65 5321.83 1772.2C5336.74 1780.76 5348.34 1793.91 5356.63 1811.67C5365.06 1829.3 5369.27 1851.72 5369.27 1878.94ZM5303.75 1938.63V1870.58C5303.75 1855.55 5302.39 1843.62 5299.67 1834.81C5297.07 1825.86 5293.25 1819.51 5288.2 1815.75C5283.27 1811.86 5277.37 1809.92 5270.5 1809.92C5263.63 1809.92 5257.73 1811.86 5252.81 1815.75C5247.88 1819.51 5244.06 1825.86 5241.34 1834.81C5238.75 1843.62 5237.45 1855.55 5237.45 1870.58V1938.63C5237.45 1953.93 5238.75 1966.05 5241.34 1974.99C5244.06 1983.8 5247.95 1990.16 5253 1994.04C5258.06 1997.8 5264.02 1999.68 5270.89 1999.68C5277.63 1999.68 5283.46 1997.8 5288.39 1994.04C5293.32 1990.16 5297.07 1983.8 5299.67 1974.99C5302.39 1966.05 5303.75 1953.93 5303.75 1938.63ZM5623 2146.28C5594.36 2146.28 5570.89 2140.71 5552.62 2129.56C5534.47 2118.41 5521.06 2103.44 5512.37 2084.65C5503.69 2065.85 5499.34 2044.98 5499.34 2022.04C5499.34 2008.43 5500.71 1994.43 5503.43 1980.05C5506.28 1965.53 5510.49 1951.01 5516.07 1936.49L5566.42 1954.77C5562.4 1965.79 5559.1 1977 5556.51 1988.41C5554.04 1999.68 5552.81 2010.51 5552.81 2020.88C5552.81 2033.06 5555.02 2044.14 5559.42 2054.12C5563.83 2064.1 5571.15 2072.01 5581.39 2077.84C5591.63 2083.81 5605.5 2086.79 5623 2086.79C5643.87 2086.79 5660.4 2084.65 5672.58 2080.37C5684.76 2076.22 5693.45 2071.56 5698.63 2066.37C5703.95 2061.32 5706.61 2057.56 5706.61 2055.09C5706.61 2050.95 5704.47 2048.42 5700.19 2047.51C5696.04 2046.73 5689.5 2046.35 5680.55 2046.35H5649.64C5643.68 2046.35 5639.98 2044.98 5638.56 2042.26C5637.13 2039.41 5635.7 2035.59 5634.28 2030.79L5625.33 1998.52C5624.43 1994.76 5624.1 1991.78 5624.36 1989.57C5624.62 1987.24 5627.34 1986.07 5632.53 1986.07H5751.71V2046.35H5755.02C5755.54 2048.68 5755.86 2050.3 5755.99 2051.21C5756.12 2052.24 5756.19 2053.54 5756.19 2055.09C5756.19 2067.67 5753.14 2079.46 5747.05 2090.48C5740.95 2101.5 5732.14 2111.16 5720.6 2119.45C5709.2 2127.88 5695.26 2134.42 5678.8 2139.09C5662.34 2143.88 5643.74 2146.28 5623 2146.28ZM5832.6 1724.37L5868.95 1760.73L5832.6 1796.89L5796.43 1760.73L5832.6 1724.37ZM5837.46 1918.22C5842.25 1918.22 5847.05 1918.02 5851.84 1917.63C5856.77 1917.12 5861.5 1916.4 5866.04 1915.5C5865.26 1911.35 5864.09 1906.94 5862.54 1902.27C5861.11 1897.61 5859.17 1893.27 5856.7 1889.25C5854.37 1885.23 5851.58 1881.99 5848.34 1879.53C5845.23 1876.93 5841.6 1875.64 5837.46 1875.64C5832.66 1875.64 5828.45 1877 5824.82 1879.72C5821.32 1882.44 5818.6 1885.94 5816.65 1890.22C5814.84 1894.5 5813.93 1899.03 5813.93 1903.83C5813.93 1910.31 5816.26 1914.33 5820.93 1915.88C5825.73 1917.44 5831.23 1918.22 5837.46 1918.22ZM5817.82 1986.07C5828.19 1986.07 5837 1985.62 5844.26 1984.71C5851.52 1983.8 5857.09 1981.99 5860.98 1979.27C5865 1976.42 5867.07 1972.14 5867.2 1966.44C5862.93 1967.08 5858.33 1967.6 5853.4 1967.99C5848.47 1968.38 5843.68 1968.57 5839.01 1968.57C5815.94 1968.57 5797.47 1963.78 5783.6 1954.19C5769.86 1944.47 5762.99 1928.52 5762.99 1906.36C5762.99 1892.1 5766.04 1878.16 5772.13 1864.55C5778.35 1850.94 5787.1 1839.73 5798.38 1830.92C5809.65 1822.1 5822.81 1817.7 5837.85 1817.7C5852.62 1817.7 5865.26 1821.39 5875.76 1828.78C5886.26 1836.04 5894.75 1845.76 5901.23 1857.94C5907.84 1870.13 5912.7 1883.8 5915.81 1898.97C5918.92 1914 5920.48 1929.3 5920.48 1944.85C5920.48 1965.2 5918.34 1981.99 5914.06 1995.21C5909.91 2008.43 5903.5 2018.8 5894.81 2026.32C5886.26 2033.71 5875.37 2038.89 5862.15 2041.87C5849.06 2044.86 5833.5 2046.35 5815.49 2046.35H5743.94V1986.07H5817.82ZM6067.08 2046.35C6062.02 2046.35 6057.03 2045.89 6052.11 2044.98C6047.18 2043.95 6042.9 2042.46 6039.27 2040.51C6035.64 2060.86 6028.45 2078.69 6017.69 2093.98C6006.93 2109.28 5993.06 2121.78 5976.08 2131.51C5959.23 2141.36 5939.73 2148.42 5917.56 2152.7L5896.76 2096.7C5915.03 2092.68 5931.04 2087.63 5944.78 2081.54C5958.65 2075.45 5969.41 2066.96 5977.06 2056.07C5984.7 2045.31 5988.53 2030.92 5988.53 2012.9C5988.53 2000.98 5986.52 1987.43 5982.5 1972.27C5978.61 1956.97 5974.53 1942.97 5970.25 1930.27L6026.25 1912L6037.72 1956.71C6039.79 1964.62 6042.77 1971.49 6046.66 1977.32C6050.55 1983.16 6056.64 1986.07 6064.94 1986.07H6072.52V2046.35H6067.08ZM6189.76 1925.61C6183.28 1925.61 6176.86 1925.93 6170.51 1926.58C6164.29 1927.1 6157.55 1928 6150.29 1929.3C6155.09 1934.23 6160.53 1939.67 6166.62 1945.63C6172.85 1951.46 6178.22 1956.52 6182.76 1960.8C6187.3 1965.07 6189.57 1967.21 6189.57 1967.21C6189.57 1967.21 6190.93 1965.98 6193.65 1963.52C6196.37 1960.93 6199.81 1957.69 6203.95 1953.8C6208.23 1949.91 6212.57 1945.76 6216.98 1941.35C6221.52 1936.95 6225.6 1932.93 6229.23 1929.3C6222.1 1928 6215.36 1927.1 6209.01 1926.58C6202.66 1925.93 6196.24 1925.61 6189.76 1925.61ZM6189.57 1871.36C6199.94 1871.36 6210.95 1872.14 6222.62 1873.69C6234.29 1875.12 6245.24 1877.52 6255.48 1880.89C6265.85 1884.13 6274.27 1888.47 6280.75 1893.91C6287.36 1899.36 6290.67 1906.03 6290.67 1913.94C6290.67 1917.44 6289.57 1921.59 6287.36 1926.38C6285.29 1931.05 6282.5 1935.98 6279 1941.16C6275.63 1946.34 6271.87 1951.53 6267.73 1956.71C6263.71 1961.77 6259.63 1966.63 6255.48 1971.3C6251.46 1975.83 6247.83 1979.72 6244.59 1982.96C6249.13 1984.26 6253.53 1985.1 6257.81 1985.49C6262.22 1985.88 6266.3 1986.07 6270.06 1986.07H6300.39V2046.35H6270.25C6254.83 2046.35 6240.38 2044.6 6226.9 2041.1C6213.55 2037.47 6201.1 2032.74 6189.57 2026.9C6181.4 2030.92 6172 2034.42 6161.37 2037.4C6150.75 2040.25 6139.73 2042.46 6128.32 2044.01C6116.91 2045.57 6105.96 2046.35 6095.46 2046.35H6064.74V1986.07H6095.66C6098.38 1986.07 6102.07 1986.07 6106.74 1986.07C6111.41 1985.94 6116.27 1985.62 6121.32 1985.1C6126.51 1984.58 6130.91 1983.8 6134.54 1982.77C6131.3 1979.4 6127.67 1975.44 6123.66 1970.91C6119.64 1966.37 6115.55 1961.51 6111.41 1956.33C6107.39 1951.14 6103.63 1945.96 6100.13 1940.77C6096.76 1935.59 6093.97 1930.66 6091.77 1925.99C6089.69 1921.33 6088.66 1917.31 6088.66 1913.94C6088.66 1906.03 6091.9 1899.36 6098.38 1893.91C6104.86 1888.47 6113.29 1884.13 6123.66 1880.89C6134.02 1877.52 6145.04 1875.12 6156.71 1873.69C6168.37 1872.14 6179.33 1871.36 6189.57 1871.36ZM6420.16 1940.58C6414.97 1940.58 6410.31 1942.33 6406.16 1945.83C6402.14 1949.2 6398.64 1953.21 6395.66 1957.88C6392.68 1962.55 6390.22 1966.89 6388.27 1970.91C6391.9 1974.15 6395.34 1976.93 6398.58 1979.27C6401.95 1981.6 6405.06 1983.55 6407.91 1985.1C6412.45 1987.56 6416.53 1989.25 6420.16 1990.16C6423.79 1991.06 6427.03 1991.52 6429.88 1991.52C6436.23 1991.52 6440.7 1989.05 6443.3 1984.13C6445.89 1979.2 6447.18 1973.82 6447.18 1967.99C6447.18 1960.73 6444.79 1954.38 6439.99 1948.94C6435.19 1943.36 6428.58 1940.58 6420.16 1940.58ZM6429.49 2050.82C6420.42 2050.82 6411.73 2049.46 6403.44 2046.73C6395.27 2044.14 6387.3 2040.64 6379.52 2036.24C6371.88 2031.7 6364.36 2026.77 6356.97 2021.46C6352.43 2025.87 6347.77 2029.95 6342.97 2033.71C6338.17 2037.47 6332.47 2040.51 6325.86 2042.85C6319.38 2045.18 6311.15 2046.35 6301.17 2046.35H6292.61V1986.07H6300.2C6306.16 1986.07 6311.54 1983.61 6316.33 1978.68C6321.26 1973.76 6326.12 1967.41 6330.92 1959.63C6335.71 1951.72 6340.77 1943.43 6346.08 1934.74C6351.53 1926.06 6357.55 1917.83 6364.16 1910.05C6370.9 1902.14 6378.68 1895.73 6387.5 1890.8C6396.31 1885.88 6406.55 1883.41 6418.21 1883.41C6434.94 1883.41 6449.39 1887.37 6461.57 1895.27C6473.76 1903.18 6483.09 1913.55 6489.57 1926.38C6496.18 1939.22 6499.49 1953.08 6499.49 1967.99C6499.49 1983.55 6496.89 1997.61 6491.71 2010.18C6486.65 2022.63 6478.94 2032.54 6468.57 2039.93C6458.33 2047.19 6445.31 2050.82 6429.49 2050.82ZM6702.66 1881.86C6715.37 1881.86 6726.51 1884.78 6736.11 1890.61C6745.83 1896.44 6753.99 1904.35 6760.6 1914.33C6767.34 1924.18 6772.66 1935.33 6776.55 1947.77C6780.44 1960.21 6782.96 1972.98 6784.13 1986.07H6796.96V2046.35H6780.24C6774.93 2066.96 6766.37 2084.26 6754.58 2098.26C6742.78 2112.26 6727.81 2123.6 6709.66 2132.28C6691.65 2141.1 6670.39 2147.9 6645.89 2152.7L6625.09 2096.7C6640.77 2093.59 6655.55 2089.57 6669.42 2084.65C6683.42 2079.85 6695.34 2074.21 6705.19 2067.73C6715.04 2061.25 6721.59 2054.12 6724.83 2046.35H6709.08C6682.64 2046.35 6662.35 2040.77 6648.22 2029.62C6634.23 2018.48 6627.23 2000.2 6627.23 1974.8C6627.23 1965.2 6628.72 1955.03 6631.7 1944.27C6634.68 1933.51 6639.22 1923.4 6645.31 1913.94C6651.53 1904.48 6659.37 1896.77 6668.83 1890.8C6678.43 1884.84 6689.7 1881.86 6702.66 1881.86ZM6709.08 1986.07H6732.22C6731.7 1981.92 6730.79 1977.32 6729.5 1972.27C6728.2 1967.21 6726.38 1962.29 6724.05 1957.49C6721.85 1952.7 6718.93 1948.81 6715.3 1945.83C6711.8 1942.72 6707.46 1941.16 6702.28 1941.16C6696.7 1941.16 6692.23 1942.91 6688.86 1946.41C6685.49 1949.91 6683.09 1954.12 6681.67 1959.05C6680.24 1963.84 6679.53 1968.31 6679.53 1972.46C6679.53 1978.94 6682.38 1982.83 6688.08 1984.13C6693.79 1985.42 6700.78 1986.07 6709.08 1986.07ZM6788.99 1986.07H6825.54V2046.35H6788.99V1986.07ZM6851.79 2046.35H6821.07V1986.07H6852.18C6861.38 1986.07 6867.73 1983.16 6871.23 1977.32C6874.73 1971.49 6876.48 1964.04 6876.48 1954.96C6876.48 1946.15 6875.38 1936.43 6873.18 1925.8C6870.97 1915.17 6868.71 1904.8 6866.37 1894.69L6920.62 1880.69C6923.21 1893.27 6925.22 1905.71 6926.65 1918.02C6928.2 1930.34 6928.98 1942.13 6928.98 1953.41C6928.98 1971.04 6926.65 1986.85 6921.98 2000.85C6917.31 2014.85 6909.34 2025.93 6898.06 2034.1C6886.92 2042.26 6871.49 2046.35 6851.79 2046.35ZM6881.15 2070.07L6915.56 2104.29L6881.15 2138.89L6846.74 2104.29L6881.15 2070.07ZM6815.04 2070.07L6849.85 2104.29L6815.04 2138.89L6781.02 2104.29L6815.04 2070.07ZM7070.33 1959.82C7070.33 1956.58 7069.55 1952.37 7068 1947.19C7066.57 1941.87 7065.14 1937.6 7063.72 1934.35L7024.64 1848.03L7073.83 1823.92L7123.02 1937.08C7126.52 1944.98 7129.63 1952.7 7132.35 1960.21C7135.2 1967.73 7138.57 1973.95 7142.46 1978.88C7146.35 1983.67 7151.47 1986.07 7157.82 1986.07H7165.99V2046.35H7157.82C7148.1 2046.35 7139.61 2045.11 7132.35 2042.65C7125.22 2040.06 7118.94 2036.62 7113.49 2032.35C7108.05 2027.94 7103.12 2023.01 7098.72 2017.57C7092.1 2023.53 7084.72 2028.65 7076.55 2032.93C7068.38 2037.21 7059.18 2040.51 7048.94 2042.85C7038.83 2045.05 7027.42 2046.15 7014.72 2046.15C7002.93 2046.15 6992.95 2045.76 6984.78 2044.98C6976.74 2044.21 6968.38 2042.78 6959.7 2040.71V1980.43C6967.74 1982.38 6976.42 1983.93 6985.75 1985.1C6995.21 1986.14 7003.9 1986.66 7011.81 1986.66C7020.23 1986.66 7028.92 1985.94 7037.86 1984.52C7046.93 1983.09 7054.58 1980.43 7060.8 1976.55C7067.15 1972.66 7070.33 1967.08 7070.33 1959.82ZM7157.82 1986.07H7173.38V2046.35H7157.82V1986.07ZM7228.79 2070.07L7263.2 2104.29L7228.79 2138.89L7194.37 2104.29L7228.79 2070.07ZM7162.68 2070.07L7197.49 2104.29L7162.68 2138.89L7128.66 2104.29L7162.68 2070.07ZM7199.43 2046.35H7168.71V1986.07H7199.82C7209.02 1986.07 7215.37 1983.16 7218.87 1977.32C7222.37 1971.49 7224.12 1964.04 7224.12 1954.96C7224.12 1946.15 7223.02 1936.43 7220.82 1925.8C7218.61 1915.17 7216.34 1904.8 7214.01 1894.69L7268.26 1880.69C7270.85 1893.27 7272.86 1905.71 7274.28 1918.02C7275.84 1930.34 7276.62 1942.13 7276.62 1953.41C7276.62 1971.04 7274.28 1986.85 7269.62 2000.85C7264.95 2014.85 7256.98 2025.93 7245.7 2034.1C7234.56 2042.26 7219.13 2046.35 7199.43 2046.35ZM7465.41 2001.24C7465.41 2032.48 7459.64 2058.27 7448.1 2078.62C7436.57 2099.1 7420.3 2115.24 7399.3 2127.03C7378.43 2138.83 7354 2147.38 7326 2152.7L7305.2 2096.7C7322.44 2093.33 7337.93 2089.18 7351.67 2084.26C7365.54 2079.46 7377.07 2073.76 7386.28 2067.15C7395.48 2060.54 7401.76 2053.15 7405.14 2044.98C7402.15 2045.5 7399.17 2045.96 7396.19 2046.35C7393.34 2046.6 7390.68 2046.73 7388.22 2046.73C7363.46 2046.73 7343.76 2041.23 7329.11 2030.21C7314.6 2019.06 7307.34 2000.59 7307.34 1974.8C7307.34 1964.3 7308.89 1953.54 7312 1942.52C7315.24 1931.5 7319.98 1921.33 7326.2 1912C7332.55 1902.66 7340.46 1895.14 7349.92 1889.44C7359.38 1883.61 7370.33 1880.69 7382.78 1880.69C7397.03 1880.69 7409.35 1884.13 7419.72 1891C7430.09 1897.74 7438.64 1906.94 7445.38 1918.61C7452.12 1930.14 7457.11 1943.04 7460.35 1957.3C7463.72 1971.56 7465.41 1986.2 7465.41 2001.24ZM7387.05 1986.66C7392.63 1986.66 7397.62 1986.4 7402.02 1985.88C7406.43 1985.23 7409.87 1984.65 7412.33 1984.13C7411.81 1980.37 7410.9 1975.96 7409.61 1970.91C7408.31 1965.85 7406.56 1960.93 7404.36 1956.13C7402.15 1951.21 7399.24 1947.19 7395.61 1944.08C7392.11 1940.84 7387.7 1939.22 7382.39 1939.22C7376.55 1939.22 7371.95 1941.22 7368.58 1945.24C7365.34 1949.13 7363.01 1953.67 7361.58 1958.85C7360.29 1964.04 7359.64 1968.57 7359.64 1972.46C7359.64 1978.94 7362.36 1982.96 7367.8 1984.52C7373.25 1985.94 7379.66 1986.66 7387.05 1986.66Z" fill="white"/>
</svg>
